<?xml version="1.0" encoding="utf-8"?>
<!-- Generator: Adobe Illustrator 16.0.2, SVG Export Plug-In . SVG Version: 6.00 Build 0)  -->
<!DOCTYPE svg PUBLIC "-//W3C//DTD SVG 1.1//EN" "http://www.w3.org/Graphics/SVG/1.1/DTD/svg11.dtd">
<svg version="1.1" id="Capa_1" xmlns="http://www.w3.org/2000/svg" xmlns:xlink="http://www.w3.org/1999/xlink" x="0px" y="0px"
	 width="612px" height="792px" viewBox="0 0 612 792" style="enable-background:new 0 0 612 792;" xml:space="preserve">
<style type="text/css">
<![CDATA[
	.st0{fill:#83D816;}
	.st1{fill:#ED5481;}
	.st2{fill:#8C6B3B;}
	.st3{fill:#2A8EE6;}
	.st4{fill:#FBAD4A;}
]]>
</style>
<path d="M383.792,245.593H228.199c-5.725,0-10.372-4.646-10.372-10.372v-57.053C217.824,129.552,257.375,90,305.996,90
	c48.62,0,88.168,39.552,88.168,88.168v57.05C394.164,240.946,389.518,245.593,383.792,245.593z M238.571,224.846h134.846v-46.678
	c0-37.175-30.246-67.425-67.425-67.425c-37.178,0-67.421,30.25-67.421,67.425V224.846z"/>
<polygon class="st2" points="534.197,287.083 77.791,287.083 108.909,235.221 503.079,235.221 "/>
<path d="M534.197,297.458H77.791c-3.741,0-7.184-2.012-9.026-5.264c-1.841-3.251-1.796-7.239,0.131-10.451l31.119-51.865
	c1.872-3.127,5.248-5.036,8.895-5.036h394.17c3.646,0,7.022,1.908,8.895,5.036l31.119,51.865c1.923,3.206,1.972,7.199,0.13,10.451
	C541.382,295.443,537.936,297.458,534.197,297.458z M96.109,276.711h419.77l-18.671-31.119H114.786L96.109,276.711z"/>
<rect x="321.561" y="172.946" transform="matrix(0.9737 0.2277 -0.2277 0.9737 67.4492 -83.1673)" class="st0" width="145.211" height="155.582"/>
<path d="M447.159,353.438c-0.783,0-1.577-0.088-2.376-0.273l-141.404-33.073c-2.68-0.629-4.999-2.289-6.452-4.631
	c-1.453-2.334-1.915-5.154-1.286-7.832l35.44-151.5c1.301-5.579,6.877-9.056,12.463-7.737l141.403,33.073
	c2.681,0.629,4.999,2.288,6.452,4.631c1.452,2.334,1.914,5.154,1.285,7.832l-35.439,151.5
	C456.131,350.214,451.864,353.438,447.159,353.438z M318.203,302.254l121.207,28.35l30.709-131.294l-121.208-28.35L318.203,302.254z
	"/>
<rect x="128.627" y="141.485" transform="matrix(0.9931 -0.1174 0.1174 0.9931 -26.1039 26.9808)" class="st3" width="174.705" height="187.186"/>
<path d="M140.201,348.664c-5.188,0-9.664-3.88-10.29-9.159l-21.969-185.882c-0.668-5.689,3.398-10.846,9.081-11.521l173.492-20.507
	c2.744-0.322,5.476,0.456,7.64,2.158c2.164,1.702,3.559,4.197,3.881,6.929l21.968,185.888c0.322,2.729-0.449,5.482-2.157,7.64
	c-1.702,2.164-4.197,3.559-6.923,3.881l-173.492,20.5C141.015,348.637,140.605,348.664,140.201,348.664z M129.759,161.491
	l19.537,165.281l152.891-18.063L282.65,143.421L129.759,161.491z"/>
<rect x="214.511" y="217.53" transform="matrix(0.9723 -0.2338 0.2338 0.9723 -63.6767 78.7805)" class="st1" width="171.884" height="180.889"/>
<path d="M238.021,426.376c-4.683,0-8.938-3.191-10.077-7.947l-42.29-175.866c-1.337-5.57,2.091-11.171,7.661-12.508l167.102-40.184
	c2.686-0.638,5.497-0.191,7.84,1.234c2.343,1.438,4.023,3.75,4.668,6.421l42.29,175.872c0.644,2.677,0.197,5.498-1.24,7.84
	c-1.438,2.349-3.744,4.023-6.421,4.668l-167.102,40.181C239.641,426.287,238.82,426.376,238.021,426.376z M208.246,247.796
	l37.439,155.702l146.932-35.33l-37.439-155.699L208.246,247.796z"/>
<polygon class="st4" points="554.944,691.625 57.047,691.625 77.791,287.083 534.197,287.083 "/>
<path d="M554.944,702H57.047c-2.842,0-5.562-1.167-7.521-3.228c-1.954-2.061-2.981-4.838-2.838-7.676l20.747-404.542
	c0.286-5.513,4.838-9.84,10.363-9.84h456.407c5.525,0,10.077,4.324,10.363,9.84l20.746,404.542c0.146,2.841-0.881,5.615-2.838,7.676
	C560.502,700.833,557.785,702,554.944,702z M67.962,681.253h476.063l-19.684-383.794H87.646L67.962,681.253z"/>
<circle class="st2" cx="383.792" cy="349.321" r="20.747"/>
<path d="M383.792,380.439c-17.161,0-31.118-13.958-31.118-31.118c0-17.161,13.957-31.119,31.118-31.119s31.118,13.958,31.118,31.119
	C414.91,366.481,400.953,380.439,383.792,380.439z M383.792,338.949c-5.72,0-10.372,4.653-10.372,10.372s4.652,10.372,10.372,10.372
	c5.719,0,10.372-4.652,10.372-10.372S389.511,338.949,383.792,338.949z"/>
<circle class="st2" cx="228.199" cy="349.321" r="20.747"/>
<path d="M228.199,380.439c-17.161,0-31.119-13.958-31.119-31.118c0-17.161,13.958-31.119,31.119-31.119
	c17.161,0,31.118,13.958,31.118,31.119C259.317,366.481,245.36,380.439,228.199,380.439z M228.199,338.949
	c-5.72,0-10.372,4.653-10.372,10.372s4.652,10.372,10.372,10.372c5.719,0,10.372-4.652,10.372-10.372
	S233.918,338.949,228.199,338.949z"/>
<path d="M305.996,504.914c-48.617,0-88.168-39.552-88.168-88.169v-57.05c0-5.725,4.646-10.372,10.372-10.372
	c5.725,0,10.372,4.646,10.372,10.372v57.05c0,37.175,30.247,67.425,67.425,67.425s67.424-30.246,67.424-67.425v-53.05
	c-0.52-1.228-0.799-2.583-0.799-4c0-5.725,4.646-10.372,10.372-10.372h0.799c5.726,0,10.372,4.646,10.372,10.372v57.05
	C394.164,465.362,354.612,504.914,305.996,504.914z"/>
</svg>
