<svg height="558pt" viewBox="-17 -103 558.66785 558" width="558pt" xmlns="http://www.w3.org/2000/svg"><path d="m408.75-5.402344-349.992188-.015625c-32.429687.039063-58.7148432 26.320313-58.7460932 58.75l-.0117188 234.28125c-.015625 13.695313 4.785156 26.964844 13.554688 37.488281.679687 1.308594 1.679687 2.421876 2.90625 3.234376 11.046874 11.515624 26.320312 18.03125 42.28125 18.023437l349.992187.011719c15.9375.003906 31.191406-6.484375 42.242187-17.976563 1.234376-.816406 2.242188-1.933593 2.925782-3.25 8.785156-10.527343 13.59375-23.804687 13.582031-37.515625v-25.742187l52.308594-34.21875c2.46875-1.617188 3.957031-4.375 3.957031-7.328125-.003906-2.953125-1.492188-5.703125-3.96875-7.320313l-52.292969-34.125v-125.535156c-.03125-32.433594-26.308593-58.722656-58.738281-58.761719zm-21 132.242188c-1.863281-1.207032-4.113281-1.660156-6.300781-1.269532l68.542969-58.121093v100.015625zm-13.511719 50.332031-53.671875.027344 54.164063-45.933594c-.335938.929687-.511719 1.914063-.515625 2.902344zm-315.480469-165.089844 349.992188.015625c19.621094.023438 36.527344 13.855469 40.433594 33.089844l-155.691406 132.03125-66.007813.039062c-4.832031 0-8.75 3.921876-8.75 8.75l.015625 27.269532c-3.023438-1.375-5.839844-3.164063-8.375-5.304688l-192.085938-162.660156c3.855469-19.300781 20.785157-33.199219 40.46875-33.230469zm-.015624 316.78125c-8.929688.007813-17.621094-2.898437-24.75-8.273437l105.566406-107.960938c3.378906-3.457031 3.3125-8.992187-.144532-12.371094-3.449218-3.378906-8.992187-3.320312-12.371093.136719l-104.535157 106.910157c-3.300781-6.039063-5.023437-12.8125-5.011718-19.691407l.003906-220.035156 181.570312 153.753906c5.75 4.871094 12.457032 8.480469 19.695313 10.582031l.011719 23.101563c0 4.835937 3.917968 8.75 8.75 8.75l146.761718-.085937.023438 42.996093c.003906 3.210938 1.761719 6.164063 4.589844 7.695313 2.824218 1.527344 6.261718 1.378906 8.949218-.378906l23.75-15.539063 21.816407 22.195313c-7.121094 5.351562-15.789063 8.242187-24.691407 8.226562zm391.242187-41.242187c.007813 6.910156-1.730469 13.707031-5.054687 19.761718l-18.382813-18.710937 23.4375-15.335937zm-41.882813-7.792969-.054687.039063-16.242187 10.625-.019532-35.578126c0-4.835937-3.917968-8.75-8.75-8.75l-146.757812.085938-.027344-51.5 146.746094-.078125c4.835937 0 8.75-3.921875 8.75-8.75l-.019532-35.582031 107.285157 70.015625zm0 0"/></svg>