<svg id="Layer_1" enable-background="new 0 0 513.16 513.16" height="512" viewBox="0 0 513.16 513.16" width="512" xmlns="http://www.w3.org/2000/svg"><g><path d="m342.308 313.333c-7.229-7.23-18.993-7.229-26.225 0l-54.73 54.731c-1.556 1.556-4.079 1.556-5.635 0l-107.23-107.23c-.917-.917-.917-2.403 0-3.319l54.608-54.608c3.504-3.503 5.434-8.16 5.434-13.114s-1.93-9.611-5.432-13.112l-98.513-98.514c-3.502-3.501-8.158-5.429-13.109-5.43h-.002c-4.955 0-9.613 1.931-13.126 5.446-63.204 56.625-116.952 120.406-41.389 207.392l188.822 188.822c15.271 15.271 34.238 26.533 54.849 32.568 80.917 19.853 115.525-22.402 160.829-68.257 7.23-7.23 7.23-18.994 0-26.225zm42.332 139.769c-12.869 12.851-29.476 22.423-47.046 26.452-32.063 7.551-66.777-2.548-90.6-26.37l-188.822-188.822c-70.661-83.58 12.106-131.305 33.314-156.869l82.299 82.299-46.509 46.51c-12.612 12.612-12.612 33.133 0 45.745l110.216 110.216c5.621 5.621 13.095 8.717 21.044 8.717s15.423-3.096 21.044-8.717l49.616-49.616 82.95 82.95z"/><path d="m460.939 1.164h-182.878c-28.794 0-52.221 23.426-52.221 52.221v77.447c0 28.795 23.426 52.221 52.221 52.221h9.197l25.027 43.349c2.679 4.641 7.631 7.5 12.99 7.5s10.311-2.859 12.99-7.5l25.027-43.349h97.646c28.794 0 52.221-23.426 52.221-52.221v-77.447c.001-28.795-23.425-52.221-52.22-52.221zm22.221 129.668c0 12.253-9.968 22.221-22.221 22.221h-106.306c-5.359 0-10.311 2.859-12.99 7.5l-16.367 28.349-16.367-28.349c-2.679-4.641-7.631-7.5-12.99-7.5h-17.857c-12.252 0-22.221-9.968-22.221-22.221v-77.447c0-12.253 9.968-22.221 22.221-22.221h182.878c12.252 0 22.221 9.968 22.221 22.221v77.447z"/><circle cx="311.713" cy="91.206" r="15.099"/><circle cx="369" cy="91.206" r="15.099"/><circle cx="426.288" cy="91.206" r="15.099"/></g></svg>