<?xml version="1.0" encoding="iso-8859-1"?>
<!-- Generator: Adobe Illustrator 19.0.0, SVG Export Plug-In . SVG Version: 6.00 Build 0)  -->
<svg version="1.1" id="Capa_1" xmlns="http://www.w3.org/2000/svg" xmlns:xlink="http://www.w3.org/1999/xlink" x="0px" y="0px"
	 viewBox="0 0 511.998 511.998" style="enable-background:new 0 0 511.998 511.998;" xml:space="preserve">
<g>
	<g>
		<path d="M418.43,390.551l-63.64-63.638c-8.499-8.499-19.8-13.18-31.82-13.18s-23.32,4.681-31.819,13.18
			c-7.659,7.659-30.48,30.48-37.861,37.861c-10.313-1.131-36.569-7.226-68.205-38.861c-31.723-31.723-37.185-57.755-38.02-68.046
			c8.163-8.163,31.024-31.024,38.02-38.02c8.5-8.5,13.181-19.8,13.181-31.82c0-12.02-4.681-23.321-13.181-31.82l-63.64-63.64
			c-17.545-17.545-46.095-17.544-63.639,0L36.593,113.78c-0.003,0.003-0.005,0.005-0.007,0.008
			c-0.003,0.003-0.005,0.005-0.008,0.007l-0.07,0.071c-21.219,21.219-34.074,49.377-36.195,79.287
			C-1.803,222.98,6.877,252.7,24.755,276.84c30.351,40.983,62.883,78.905,96.691,112.713
			c35.342,35.343,75.372,70.037,112.713,97.691c21.757,16.113,48.047,24.754,74.863,24.754c2.936,0,5.879-0.104,8.823-0.313
			c29.91-2.121,58.067-14.976,79.271-36.18l0.086-0.086c0.003-0.003,0.005-0.005,0.007-0.008c0.002-0.002,0.005-0.005,0.008-0.007
			l21.213-21.213c8.5-8.5,13.181-19.8,13.181-31.82C431.611,410.351,426.93,399.05,418.43,390.551z M79.019,113.781
			c5.848-5.848,15.364-5.849,21.213,0l63.64,63.64c5.848,5.848,5.848,15.365,0,21.213l-10.606,10.606l-84.853-84.853L79.019,113.781
			z M252.013,463.135c-36.189-26.801-75.025-60.467-109.354-94.796c-32.765-32.765-64.322-69.557-93.795-109.354
			c-25.331-34.204-25.067-79.424-0.853-112.573c2.86,2.86,81.88,81.88,84.042,84.041l-10.607,10.607
			c-2.388,2.388-3.9,5.512-4.292,8.867c-0.215,1.846-4.688,45.793,46.719,97.199c38.161,38.161,77.328,49.517,96.811,47.759
			c3.497-0.316,6.772-1.849,9.255-4.333l10.606-10.606l84.044,84.043C331.449,488.204,286.222,488.47,252.013,463.135z
			 M397.217,432.979l-10.606,10.606l-84.853-84.853l10.606-10.606c5.849-5.849,15.365-5.848,21.213,0l63.64,63.64
			c2.833,2.833,4.394,6.6,4.394,10.606S400.05,430.146,397.217,432.979z"/>
	</g>
</g>
<g>
	<g>
		<path d="M437.424,74.574C389.334,26.484,325.298,0,257.112,0c-8.284,0-15,6.716-15,15s6.716,15,15,15
			c60.173,0,116.675,23.364,159.099,65.787c42.423,42.424,65.787,98.926,65.787,159.099c0,8.284,6.716,15,15,15s15-6.716,15-15
			C511.998,186.7,485.514,122.664,437.424,74.574z"/>
	</g>
</g>
<g>
	<g>
		<path d="M394.998,117c-36.779-36.778-85.747-57.032-137.886-57.032c-8.284,0-15,6.716-15,15s6.716,15,15,15
			c44.125,0,85.561,17.134,116.673,48.246s48.246,72.547,48.246,116.672c0,8.284,6.716,15,15,15s15-6.716,15-15
			C452.031,202.747,431.777,153.778,394.998,117z"/>
	</g>
</g>
<g>
	<g>
		<path d="M352.571,159.427c-25.498-25.498-59.399-39.541-95.459-39.541c-8.284,0-15,6.716-15,15s6.716,15,15,15
			c28.047,0,54.414,10.922,74.246,30.754c19.832,19.832,30.754,46.199,30.754,74.246c0,8.284,6.716,15,15,15s15-6.716,15-15
			C392.112,218.826,378.07,184.925,352.571,159.427z"/>
	</g>
</g>
<g>
</g>
<g>
</g>
<g>
</g>
<g>
</g>
<g>
</g>
<g>
</g>
<g>
</g>
<g>
</g>
<g>
</g>
<g>
</g>
<g>
</g>
<g>
</g>
<g>
</g>
<g>
</g>
<g>
</g>
</svg>
