<svg viewBox="0 0 512 512.00097" xmlns="http://www.w3.org/2000/svg"><path d="m204.40625 172.113281 67.96875-46.875h141.433594v-125.238281h-246.472656v125.238281h37.070312zm-22.039062-61.902343v-95.183594h216.414062v95.183594h-131.085938l-48.257812 33.28125v-33.28125zm0 0"/><path d="m362.066406 354.179688-10.628906 10.628906 39.570312 39.566406c8.789063 8.789062 8.789063 23.09375 0 31.882812l-15.941406 15.941407-88.558594-88.558594 11.882813-11.882813-10.625-10.628906-17.195313 17.195313c-31.296874 31.296875-45.433593 29.097656-56.046874 22.058593-12.582032-8.34375-74.566407-70.328124-82.90625-82.90625-7.039063-10.613281-9.242188-24.75 22.058593-56.046874l21.25-21.253907c14.652344-14.648437 14.652344-38.484375 0-53.136719l-56.675781-56.675781c-14.648438-14.648437-38.484375-14.652343-53.132812 0l-21.253907 21.253907c-22.847656 22.847656-36.449219 45.375-41.582031 68.871093-4.71875 21.625-2.132812 43.519531 7.917969 66.929688 17.667969 41.167969 56.101562 81.46875 104.507812 129.875 48.410157 48.40625 88.710938 86.839843 129.875 104.507812 15.875 6.816407 31.050781 10.199219 45.921875 10.199219 7.058594 0 14.046875-.761719 21.007813-2.28125 23.496093-5.132812 46.023437-18.730469 68.871093-41.578125l21.253907-21.253906c14.648437-14.652344 14.648437-38.484375 0-53.136719zm-286.324218-233.1875c8.785156-8.792969 23.089843-8.792969 31.878906 0l56.675781 56.675781c8.789063 8.789062 8.789063 23.089843 0 31.878906l-15.9375 15.941406-88.558594-88.558593zm174.765624 367c-38.707031-16.613282-77.925781-54.078126-125.175781-101.328126-47.246093-47.25-84.710937-86.46875-101.324219-125.175781-17.34375-40.40625-9.320312-76.738281 25.265626-113.828125l88.542968 88.542969c-26.210937 27.988281-31.960937 49.628906-18.726562 69.578125 9.414062 14.199219 72.925781 77.707031 87.125 87.125 19.949218 13.234375 41.589844 7.484375 69.578125-18.722656l88.542969 88.539062c-37.085938 34.585938-73.421876 42.613282-113.828126 25.269532zm0 0"/><path d="m276.546875 156.300781v156.296875h34.066406v55.175782l87.828125-55.175782h113.558594v-156.296875zm220.421875 141.269531h-102.855469l-68.472656 43.015626v-43.015626h-34.066406v-126.242187h205.394531zm0 0"/><path d="m301.09375 38.074219h70.132812v15.027343h-70.132812zm0 0"/><path d="m271.035156 38.074219h15.03125v15.027343h-15.03125zm0 0"/><path d="m209.917969 38.074219h46.089843v15.027343h-46.089843zm0 0"/><path d="m209.917969 72.136719h36.070312v15.03125h-36.070312zm0 0"/><path d="m261.015625 72.136719h70.136719v15.03125h-70.136719zm0 0"/><path d="m319.128906 197.378906h45.085938v15.027344h-45.085938zm0 0"/><path d="m379.242188 197.378906h15.03125v15.027344h-15.03125zm0 0"/><path d="m409.300781 197.378906h60.113281v15.027344h-60.113281zm0 0"/><path d="m394.273438 227.4375h40.074218v15.027344h-40.074218zm0 0"/><path d="m319.128906 227.4375h60.113282v15.027344h-60.113282zm0 0"/><path d="m449.378906 227.4375h20.035156v15.027344h-20.035156zm0 0"/><path d="m359.203125 257.492188h70.136719v15.03125h-70.136719zm0 0"/><path d="m319.128906 257.492188h25.046875v15.03125h-25.046875zm0 0"/></svg>